<svg xmlns="http://www.w3.org/2000/svg" width="26.434" height="26.428" viewBox="0 0 26.434 26.428">
  <path id="instagram" d="M13.215,8.676a6.776,6.776,0,1,0,6.776,6.776A6.765,6.765,0,0,0,13.215,8.676Zm0,11.181a4.405,4.405,0,1,1,4.405-4.405,4.413,4.413,0,0,1-4.405,4.405ZM21.848,8.4a1.58,1.58,0,1,1-1.58-1.58A1.577,1.577,0,0,1,21.848,8.4ZM26.336,10A7.821,7.821,0,0,0,24.2,4.465a7.873,7.873,0,0,0-5.537-2.135c-2.182-.124-8.722-.124-10.9,0A7.861,7.861,0,0,0,2.222,4.459,7.847,7.847,0,0,0,.088,10c-.124,2.182-.124,8.722,0,10.9a7.821,7.821,0,0,0,2.135,5.537A7.883,7.883,0,0,0,7.76,28.573c2.182.124,8.722.124,10.9,0A7.821,7.821,0,0,0,24.2,26.438,7.873,7.873,0,0,0,26.336,20.9c.124-2.182.124-8.716,0-10.9ZM23.517,23.242A4.46,4.46,0,0,1,21,25.754c-1.74.69-5.868.531-7.79.531s-6.056.153-7.79-.531a4.46,4.46,0,0,1-2.512-2.512c-.69-1.74-.531-5.868-.531-7.79s-.153-6.056.531-7.79A4.46,4.46,0,0,1,5.424,5.149c1.74-.69,5.868-.531,7.79-.531s6.056-.153,7.79.531a4.46,4.46,0,0,1,2.512,2.512c.69,1.74.531,5.868.531,7.79S24.207,21.508,23.517,23.242Z" transform="translate(0.005 -2.238)" fill="#f9f8dc"/>
</svg>
