<svg xmlns="http://www.w3.org/2000/svg" width="26.134" height="21.234" viewBox="0 0 26.134 21.234">
  <path id="menu" d="M4.083,19.709H.817A.817.817,0,0,0,0,20.525v3.267a.817.817,0,0,0,.817.817H4.083a.817.817,0,0,0,.817-.817V20.525A.817.817,0,0,0,4.083,19.709Zm0-16.334H.817A.817.817,0,0,0,0,4.192V7.458a.817.817,0,0,0,.817.817H4.083A.817.817,0,0,0,4.9,7.458V4.192A.817.817,0,0,0,4.083,3.375Zm0,8.167H.817A.817.817,0,0,0,0,12.359v3.267a.817.817,0,0,0,.817.817H4.083a.817.817,0,0,0,.817-.817V12.359A.817.817,0,0,0,4.083,11.542Zm21.234,8.984H8.984a.817.817,0,0,0-.817.817v1.633a.817.817,0,0,0,.817.817H25.317a.817.817,0,0,0,.817-.817V21.342A.817.817,0,0,0,25.317,20.525Zm0-16.334H8.984a.817.817,0,0,0-.817.817V6.642a.817.817,0,0,0,.817.817H25.317a.817.817,0,0,0,.817-.817V5.008A.817.817,0,0,0,25.317,4.192Zm0,8.167H8.984a.817.817,0,0,0-.817.817v1.633a.817.817,0,0,0,.817.817H25.317a.817.817,0,0,0,.817-.817V13.175A.817.817,0,0,0,25.317,12.359Z" transform="translate(0 -3.375)" fill="#f9f8dc"/>
</svg>
