<svg xmlns="http://www.w3.org/2000/svg" width="22.96" height="26.428" viewBox="0 0 22.96 26.428">
  <path id="tiktok" d="M14.427.022C15.87,0,17.3.011,18.733,0A6.859,6.859,0,0,0,20.66,4.592a7.766,7.766,0,0,0,4.669,1.971V11A11.786,11.786,0,0,1,20.7,9.932,13.605,13.605,0,0,1,18.92,8.908c-.011,3.215.011,6.431-.022,9.635a8.411,8.411,0,0,1-1.487,4.339A8.2,8.2,0,0,1,10.9,26.417a8.029,8.029,0,0,1-4.493-1.134,8.3,8.3,0,0,1-4.019-6.288c-.022-.551-.033-1.1-.011-1.641A8.29,8.29,0,0,1,11.994,10c.022,1.63-.044,3.259-.044,4.889a3.778,3.778,0,0,0-4.823,2.334,4.368,4.368,0,0,0-.154,1.773,3.748,3.748,0,0,0,3.854,3.16,3.7,3.7,0,0,0,3.05-1.773,2.541,2.541,0,0,0,.451-1.167c.11-1.971.066-3.931.077-5.9.011-4.438-.011-8.864.022-13.291Z" transform="translate(-2.369)" fill="#f9f8dc"/>
</svg>
